<svg width="512" height="512" viewBox="0 0 512 512" xmlns="http://www.w3.org/2000/svg">
  <defs>
    <linearGradient id="gradient" x1="0%" y1="0%" x2="100%" y2="100%">
      <stop offset="0%" style="stop-color:#667eea;stop-opacity:1" />
      <stop offset="100%" style="stop-color:#764ba2;stop-opacity:1" />
    </linearGradient>
  </defs>
  
  <!-- 背景 -->
  <rect width="512" height="512" rx="90" fill="url(#gradient)"/>
  
  <!-- チャットバブル1 -->
  <rect x="80" y="150" width="280" height="80" rx="40" fill="white" opacity="0.9"/>
  <circle cx="130" cy="190" r="15" fill="#667eea"/>
  <rect x="160" y="180" width="120" height="8" rx="4" fill="#667eea" opacity="0.6"/>
  <rect x="160" y="195" width="80" height="8" rx="4" fill="#667eea" opacity="0.4"/>
  
  <!-- チャットバブル2 -->
  <rect x="152" y="250" width="280" height="80" rx="40" fill="white" opacity="0.95"/>
  <circle cx="382" cy="290" r="15" fill="#764ba2"/>
  <rect x="180" y="280" width="140" height="8" rx="4" fill="#764ba2" opacity="0.6"/>
  <rect x="180" y="295" width="100" height="8" rx="4" fill="#764ba2" opacity="0.4"/>
  
  <!-- ハート -->
  <path d="M 256 380 C 256 380 220 350 200 330 C 180 310 180 280 200 280 C 220 280 256 310 256 310 C 256 310 292 280 312 280 C 332 280 332 310 312 330 C 292 350 256 380 256 380 Z" fill="white" opacity="0.8"/>
</svg>
